# MagicaVoxel @ Ephtracy

# group
g bishop

# material
mtllib bishop.mtl
usemtl palette

# normals
vn -1 0 0
vn 1 0 0
vn 0 0 1
vn 0 0 -1
vn 0 -1 0
vn 0 1 0

# texcoords
vt 0.208984 0.5
vt 0.373047 0.5

# verts
v -3 0 3
v -3 0 -3
v -3 1 3
v -3 1 1
v -3 1 -1
v -3 1 -3
v -3 2 1
v -3 2 -1
v -2 1 2
v -2 1 1
v -2 1 -1
v -2 1 -2
v -2 2 2
v -2 2 1
v -2 2 -1
v -2 2 -2
v -2 3 1
v -2 3 -1
v -2 8 1
v -2 8 -1
v -2 10 1
v -2 10 -1
v -1 1 3
v -1 1 2
v -1 1 -2
v -1 1 -3
v -1 2 3
v -1 2 2
v -1 2 1
v -1 2 -1
v -1 2 -2
v -1 2 -3
v -1 3 2
v -1 3 1
v -1 3 -1
v -1 3 -2
v -1 8 2
v -1 8 1
v -1 8 -1
v -1 8 -2
v -1 10 1
v -1 10 -0
v -1 10 -1
v -1 12 2
v -1 12 1
v -1 12 -1
v -1 12 -2
v -1 13 -0
v -1 13 -1
v -1 14 1
v -1 14 -0
v 1 9 1
v 1 9 -1
v 1 10 1
v 1 10 -0
v 1 10 -1
v -1 9 1
v -1 9 -1
v -1 10 1
v -1 10 -0
v -1 10 -1
v 1 1 3
v 1 1 2
v 1 1 -2
v 1 1 -3
v 1 2 3
v 1 2 2
v 1 2 1
v 1 2 -1
v 1 2 -2
v 1 2 -3
v 1 3 2
v 1 3 1
v 1 3 -1
v 1 3 -2
v 1 8 2
v 1 8 1
v 1 8 -1
v 1 8 -2
v 1 10 1
v 1 10 -0
v 1 10 -1
v 1 12 2
v 1 12 1
v 1 12 -1
v 1 12 -2
v 1 13 -0
v 1 13 -1
v 1 14 1
v 1 14 -0
v 2 1 2
v 2 1 1
v 2 1 -1
v 2 1 -2
v 2 2 2
v 2 2 1
v 2 2 -1
v 2 2 -2
v 2 3 1
v 2 3 -1
v 2 8 1
v 2 8 -1
v 2 10 1
v 2 10 -1
v 3 0 3
v 3 0 -3
v 3 1 3
v 3 1 1
v 3 1 -1
v 3 1 -3
v 3 2 1
v 3 2 -1
v -3 0 3
v -3 1 3
v -1 1 3
v -1 2 3
v 1 1 3
v 1 2 3
v 3 0 3
v 3 1 3
v -2 1 2
v -2 2 2
v -1 1 2
v -1 2 2
v -1 3 2
v -1 8 2
v -1 12 2
v 1 1 2
v 1 2 2
v 1 3 2
v 1 8 2
v 1 12 2
v 2 1 2
v 2 2 2
v -3 1 1
v -3 2 1
v -2 1 1
v -2 2 1
v -2 3 1
v -2 8 1
v -2 10 1
v -1 2 1
v -1 3 1
v -1 8 1
v -1 10 1
v -1 12 1
v -1 14 1
v 1 2 1
v 1 3 1
v 1 8 1
v 1 10 1
v 1 12 1
v 1 14 1
v 2 1 1
v 2 2 1
v 2 3 1
v 2 8 1
v 2 10 1
v 3 1 1
v 3 2 1
v -1 9 -1
v -1 10 -1
v 1 9 -1
v 1 10 -1
v -1 9 1
v -1 10 1
v 1 9 1
v 1 10 1
v -1 13 -0
v -1 14 -0
v 1 13 -0
v 1 14 -0
v -3 1 -1
v -3 2 -1
v -2 1 -1
v -2 2 -1
v -2 3 -1
v -2 8 -1
v -2 10 -1
v -1 2 -1
v -1 3 -1
v -1 8 -1
v -1 10 -1
v -1 12 -1
v -1 13 -1
v 1 2 -1
v 1 3 -1
v 1 8 -1
v 1 10 -1
v 1 12 -1
v 1 13 -1
v 2 1 -1
v 2 2 -1
v 2 3 -1
v 2 8 -1
v 2 10 -1
v 3 1 -1
v 3 2 -1
v -2 1 -2
v -2 2 -2
v -1 1 -2
v -1 2 -2
v -1 3 -2
v -1 8 -2
v -1 12 -2
v 1 1 -2
v 1 2 -2
v 1 3 -2
v 1 8 -2
v 1 12 -2
v 2 1 -2
v 2 2 -2
v -3 0 -3
v -3 1 -3
v -1 1 -3
v -1 2 -3
v 1 1 -3
v 1 2 -3
v 3 0 -3
v 3 1 -3
v -3 0 3
v 3 0 3
v -3 0 -3
v 3 0 -3
v -1 8 2
v 1 8 2
v -2 8 1
v -1 8 1
v 1 8 1
v 2 8 1
v -2 8 -1
v -1 8 -1
v 1 8 -1
v 2 8 -1
v -1 8 -2
v 1 8 -2
v -1 10 1
v 1 10 1
v -1 10 -0
v 1 10 -0
v -1 10 -1
v 1 10 -1
v -3 1 3
v -1 1 3
v 1 1 3
v 3 1 3
v -2 1 2
v -1 1 2
v 1 1 2
v 2 1 2
v -3 1 1
v -2 1 1
v 2 1 1
v 3 1 1
v -3 1 -1
v -2 1 -1
v 2 1 -1
v 3 1 -1
v -2 1 -2
v -1 1 -2
v 1 1 -2
v 2 1 -2
v -3 1 -3
v -1 1 -3
v 1 1 -3
v 3 1 -3
v -1 2 3
v 1 2 3
v -2 2 2
v -1 2 2
v 1 2 2
v 2 2 2
v -3 2 1
v -2 2 1
v -1 2 1
v 1 2 1
v 2 2 1
v 3 2 1
v -3 2 -1
v -2 2 -1
v -1 2 -1
v 1 2 -1
v 2 2 -1
v 3 2 -1
v -2 2 -2
v -1 2 -2
v 1 2 -2
v 2 2 -2
v -1 2 -3
v 1 2 -3
v -1 3 2
v 1 3 2
v -2 3 1
v -1 3 1
v 1 3 1
v 2 3 1
v -2 3 -1
v -1 3 -1
v 1 3 -1
v 2 3 -1
v -1 3 -2
v 1 3 -2
v -1 9 1
v 1 9 1
v -1 9 -1
v 1 9 -1
v -2 10 1
v -1 10 1
v 1 10 1
v 2 10 1
v -1 10 -0
v 1 10 -0
v -2 10 -1
v -1 10 -1
v 1 10 -1
v 2 10 -1
v -1 12 2
v 1 12 2
v -1 12 1
v 1 12 1
v -1 12 -1
v 1 12 -1
v -1 12 -2
v 1 12 -2
v -1 13 -0
v 1 13 -0
v -1 13 -1
v 1 13 -1
v -1 14 1
v 1 14 1
v -1 14 -0
v 1 14 -0

# faces
f 3/1/1 2/1/1 1/1/1
f 4/1/1 2/1/1 3/1/1
f 5/1/1 2/1/1 4/1/1
f 6/1/1 2/1/1 5/1/1
f 7/1/1 5/1/1 4/1/1
f 8/1/1 5/1/1 7/1/1
f 13/1/1 10/1/1 9/1/1
f 14/1/1 10/1/1 13/1/1
f 15/1/1 12/1/1 11/1/1
f 16/1/1 12/1/1 15/1/1
f 17/2/1 15/2/1 14/2/1
f 18/2/1 15/2/1 17/2/1
f 21/1/1 20/1/1 19/1/1
f 22/1/1 20/1/1 21/1/1
f 27/1/1 24/1/1 23/1/1
f 28/1/1 24/1/1 27/1/1
f 31/1/1 26/1/1 25/1/1
f 32/1/1 26/1/1 31/1/1
f 33/2/1 29/2/1 28/2/1
f 34/2/1 29/2/1 33/2/1
f 35/2/1 31/2/1 30/2/1
f 36/2/1 31/2/1 35/2/1
f 38/1/1 35/1/1 34/1/1
f 39/1/1 35/1/1 38/1/1
f 41/1/1 38/1/1 37/1/1
f 43/1/1 40/1/1 39/1/1
f 44/1/1 42/1/1 41/1/1
f 44/1/1 41/1/1 37/1/1
f 45/1/1 42/1/1 44/1/1
f 46/2/1 43/2/1 42/2/1
f 46/1/1 40/1/1 43/1/1
f 47/1/1 40/1/1 46/1/1
f 48/1/1 42/1/1 45/1/1
f 48/2/1 46/2/1 42/2/1
f 49/2/1 46/2/1 48/2/1
f 50/1/1 48/1/1 45/1/1
f 51/1/1 48/1/1 50/1/1
f 54/1/1 53/1/1 52/1/1
f 55/1/1 53/1/1 54/1/1
f 56/1/1 53/1/1 55/1/1
f 57/1/2 58/1/2 59/1/2
f 59/1/2 58/1/2 60/1/2
f 60/1/2 58/1/2 61/1/2
f 62/1/2 63/1/2 66/1/2
f 66/1/2 63/1/2 67/1/2
f 64/1/2 65/1/2 70/1/2
f 70/1/2 65/1/2 71/1/2
f 67/2/2 68/2/2 72/2/2
f 72/2/2 68/2/2 73/2/2
f 69/2/2 70/2/2 74/2/2
f 74/2/2 70/2/2 75/2/2
f 73/1/2 74/1/2 77/1/2
f 77/1/2 74/1/2 78/1/2
f 76/1/2 77/1/2 80/1/2
f 78/1/2 79/1/2 82/1/2
f 80/1/2 81/1/2 83/1/2
f 76/1/2 80/1/2 83/1/2
f 83/1/2 81/1/2 84/1/2
f 81/2/2 82/2/2 85/2/2
f 82/1/2 79/1/2 85/1/2
f 85/1/2 79/1/2 86/1/2
f 84/1/2 81/1/2 87/1/2
f 81/2/2 85/2/2 87/2/2
f 87/2/2 85/2/2 88/2/2
f 84/1/2 87/1/2 89/1/2
f 89/1/2 87/1/2 90/1/2
f 91/1/2 92/1/2 95/1/2
f 95/1/2 92/1/2 96/1/2
f 93/1/2 94/1/2 97/1/2
f 97/1/2 94/1/2 98/1/2
f 96/2/2 97/2/2 99/2/2
f 99/2/2 97/2/2 100/2/2
f 101/1/2 102/1/2 103/1/2
f 103/1/2 102/1/2 104/1/2
f 105/1/2 106/1/2 107/1/2
f 107/1/2 106/1/2 108/1/2
f 108/1/2 106/1/2 109/1/2
f 109/1/2 106/1/2 110/1/2
f 108/1/2 109/1/2 111/1/2
f 111/1/2 109/1/2 112/1/2
f 115/1/3 114/1/3 113/1/3
f 117/1/3 115/1/3 113/1/3
f 117/1/3 116/1/3 115/1/3
f 118/1/3 116/1/3 117/1/3
f 119/1/3 117/1/3 113/1/3
f 120/1/3 117/1/3 119/1/3
f 123/1/3 122/1/3 121/1/3
f 124/1/3 122/1/3 123/1/3
f 129/2/3 125/2/3 124/2/3
f 130/2/3 125/2/3 129/2/3
f 131/1/3 127/1/3 126/1/3
f 132/1/3 127/1/3 131/1/3
f 133/1/3 129/1/3 128/1/3
f 134/1/3 129/1/3 133/1/3
f 137/1/3 136/1/3 135/1/3
f 138/1/3 136/1/3 137/1/3
f 142/2/3 139/2/3 138/2/3
f 143/2/3 139/2/3 142/2/3
f 144/1/3 141/1/3 140/1/3
f 145/1/3 141/1/3 144/1/3
f 149/1/3 144/1/3 143/1/3
f 150/1/3 144/1/3 149/1/3
f 152/1/3 147/1/3 146/1/3
f 153/1/3 147/1/3 152/1/3
f 155/2/3 149/2/3 148/2/3
f 156/2/3 149/2/3 155/2/3
f 157/1/3 151/1/3 150/1/3
f 158/1/3 151/1/3 157/1/3
f 159/1/3 155/1/3 154/1/3
f 160/1/3 155/1/3 159/1/3
f 163/1/3 162/1/3 161/1/3
f 164/1/3 162/1/3 163/1/3
f 165/1/4 166/1/4 167/1/4
f 167/1/4 166/1/4 168/1/4
f 169/1/4 170/1/4 171/1/4
f 171/1/4 170/1/4 172/1/4
f 173/1/4 174/1/4 175/1/4
f 175/1/4 174/1/4 176/1/4
f 176/2/4 177/2/4 180/2/4
f 180/2/4 177/2/4 181/2/4
f 178/1/4 179/1/4 182/1/4
f 182/1/4 179/1/4 183/1/4
f 181/1/4 182/1/4 187/1/4
f 187/1/4 182/1/4 188/1/4
f 184/2/4 185/2/4 190/2/4
f 190/2/4 185/2/4 191/2/4
f 186/2/4 187/2/4 193/2/4
f 193/2/4 187/2/4 194/2/4
f 188/1/4 189/1/4 195/1/4
f 195/1/4 189/1/4 196/1/4
f 192/1/4 193/1/4 197/1/4
f 197/1/4 193/1/4 198/1/4
f 199/1/4 200/1/4 201/1/4
f 201/1/4 200/1/4 202/1/4
f 202/2/4 203/2/4 207/2/4
f 207/2/4 203/2/4 208/2/4
f 204/1/4 205/1/4 209/1/4
f 209/1/4 205/1/4 210/1/4
f 206/1/4 207/1/4 211/1/4
f 211/1/4 207/1/4 212/1/4
f 213/1/4 214/1/4 215/1/4
f 213/1/4 215/1/4 217/1/4
f 215/1/4 216/1/4 217/1/4
f 217/1/4 216/1/4 218/1/4
f 213/1/4 217/1/4 219/1/4
f 219/1/4 217/1/4 220/1/4
f 223/1/5 222/1/5 221/1/5
f 224/1/5 222/1/5 223/1/5
f 228/1/5 226/1/5 225/1/5
f 229/1/5 226/1/5 228/1/5
f 231/1/5 228/1/5 227/1/5
f 232/1/5 228/1/5 231/1/5
f 233/1/5 230/1/5 229/1/5
f 234/1/5 230/1/5 233/1/5
f 235/1/5 233/1/5 232/1/5
f 236/1/5 233/1/5 235/1/5
f 239/1/5 238/1/5 237/1/5
f 240/1/5 238/1/5 239/1/5
f 241/2/5 240/2/5 239/2/5
f 242/2/5 240/2/5 241/2/5
f 243/1/6 244/1/6 247/1/6
f 247/1/6 244/1/6 248/1/6
f 245/1/6 246/1/6 249/1/6
f 249/1/6 246/1/6 250/1/6
f 243/1/6 247/1/6 251/1/6
f 251/1/6 247/1/6 252/1/6
f 250/1/6 246/1/6 253/1/6
f 253/1/6 246/1/6 254/1/6
f 255/1/6 256/1/6 259/1/6
f 257/1/6 258/1/6 262/1/6
f 259/1/6 260/1/6 263/1/6
f 255/1/6 259/1/6 263/1/6
f 263/1/6 260/1/6 264/1/6
f 261/1/6 262/1/6 265/1/6
f 262/1/6 258/1/6 266/1/6
f 265/1/6 262/1/6 266/1/6
f 267/1/6 268/1/6 270/1/6
f 270/1/6 268/1/6 271/1/6
f 269/1/6 270/1/6 274/1/6
f 274/1/6 270/1/6 275/1/6
f 271/1/6 272/1/6 276/1/6
f 276/1/6 272/1/6 277/1/6
f 273/1/6 274/1/6 279/1/6
f 279/1/6 274/1/6 280/1/6
f 277/1/6 278/1/6 283/1/6
f 283/1/6 278/1/6 284/1/6
f 280/1/6 281/1/6 285/1/6
f 285/1/6 281/1/6 286/1/6
f 282/1/6 283/1/6 287/1/6
f 287/1/6 283/1/6 288/1/6
f 286/1/6 287/1/6 289/1/6
f 289/1/6 287/1/6 290/1/6
f 291/2/6 292/2/6 294/2/6
f 294/2/6 292/2/6 295/2/6
f 293/2/6 294/2/6 297/2/6
f 297/2/6 294/2/6 298/2/6
f 295/2/6 296/2/6 299/2/6
f 299/2/6 296/2/6 300/2/6
f 298/2/6 299/2/6 301/2/6
f 301/2/6 299/2/6 302/2/6
f 303/1/6 304/1/6 305/1/6
f 305/1/6 304/1/6 306/1/6
f 307/1/6 308/1/6 311/1/6
f 309/1/6 310/1/6 312/1/6
f 307/1/6 311/1/6 313/1/6
f 313/1/6 311/1/6 314/1/6
f 312/1/6 310/1/6 315/1/6
f 315/1/6 310/1/6 316/1/6
f 317/1/6 318/1/6 319/1/6
f 319/1/6 318/1/6 320/1/6
f 321/1/6 322/1/6 323/1/6
f 323/1/6 322/1/6 324/1/6
f 325/2/6 326/2/6 327/2/6
f 327/2/6 326/2/6 328/2/6
f 329/1/6 330/1/6 331/1/6
f 331/1/6 330/1/6 332/1/6
